<svg height="32" viewBox="0 0 32 32" width="32" xmlns="http://www.w3.org/2000/svg"><path d="m26 13a4.0045 4.0045 0 0 0 4-4v-3h-3a3.979 3.979 0 0 0 -2.7468 1.1064 6.0041 6.0041 0 0 0 -5.2532-3.1064h-3v3a6.0066 6.0066 0 0 0 6 6h1v13h-12v-5h1a4.0045 4.0045 0 0 0 4-4v-3h-3a3.979 3.979 0 0 0 -2.7468 1.1064 6.0041 6.0041 0 0 0 -5.2532-3.1064h-3v3a6.0066 6.0066 0 0 0 6 6h1v5h-7v2h28v-2h-5v-13zm-1-3a2.002 2.002 0 0 1 2-2h1v1a2.002 2.002 0 0 1 -2 2h-1zm-14 8a2.002 2.002 0 0 1 2-2h1v1a2.002 2.002 0 0 1 -2 2h-1zm-2 1h-1a4.0045 4.0045 0 0 1 -4-4v-1h1a4.0045 4.0045 0 0 1 4 4zm14-8h-1a4.0045 4.0045 0 0 1 -4-4v-1h1a4.0045 4.0045 0 0 1 4 4z"/><path d="m0 0h32v32h-32z" fill="none"/></svg>